# xmcd
#
# Track frame offsets: 
#        150
#        15416
#        32071
#        53139
#        69976
#        93326
#        114709
#        126276
#        147412
#        159436
#        179345
#        194771
#
# Disc length: 2835 seconds
#
# Revision: 1
# Processed by: cddbd v1.5.2PL0 Copyright (c) Steve Scherf et al.
# Submitted via: ExactAudioCopy v1.0b3
#
DISCID=a60b110c
DTITLE=Little G Weevil - The Teaser
DYEAR=2011
DGENRE=Blues
TTITLE0=Real Men Don't Dance
TTITLE1=The Teaser
TTITLE2=Big City Life
TTITLE3=Back Porch
TTITLE4=Highway 78
TTITLE5=Apple Picker
TTITLE6=Dad's Story
TTITLE7=8.47
TTITLE8=Liquor Store
TTITLE9=She Used To Call Me Sugar
TTITLE10=Losing Cool
TTITLE11=Which Way Shall I Go
EXTD=
EXTT0=
EXTT1=
EXTT2=
EXTT3=
EXTT4=
EXTT5=
EXTT6=
EXTT7=
EXTT8=
EXTT9=
EXTT10=
EXTT11=
PLAYORDER=
